<?xml version="1.0" encoding="UTF-8" standalone="no"?>
<svg
   xmlns:dc="http://purl.org/dc/elements/1.1/"
   xmlns:cc="http://creativecommons.org/ns#"
   xmlns:rdf="http://www.w3.org/1999/02/22-rdf-syntax-ns#"
   xmlns:svg="http://www.w3.org/2000/svg"
   xmlns="http://www.w3.org/2000/svg"
   xmlns:sodipodi="http://sodipodi.sourceforge.net/DTD/sodipodi-0.dtd"
   xmlns:inkscape="http://www.inkscape.org/namespaces/inkscape"
   width="320"
   height="128.00703"
   version="1.1"
   id="svg23"
   sodipodi:docname="logo_new.svg"
   inkscape:version="1.0.2-2 (e86c870879, 2021-01-15)">
  <metadata
     id="metadata29">
    <rdf:RDF>
      <cc:Work
         rdf:about="">
        <dc:format>image/svg+xml</dc:format>
        <dc:type
           rdf:resource="http://purl.org/dc/dcmitype/StillImage" />
        <dc:title></dc:title>
      </cc:Work>
    </rdf:RDF>
  </metadata>
  <defs
     id="defs27" />
  <sodipodi:namedview
     pagecolor="#ffffff"
     bordercolor="#666666"
     borderopacity="1"
     objecttolerance="10"
     gridtolerance="10"
     guidetolerance="10"
     inkscape:pageopacity="0"
     inkscape:pageshadow="2"
     inkscape:window-width="1920"
     inkscape:window-height="1017"
     id="namedview25"
     showgrid="false"
     inkscape:zoom="1.2003863"
     inkscape:cx="-213.92802"
     inkscape:cy="-1.0446012"
     inkscape:window-x="-8"
     inkscape:window-y="-8"
     inkscape:window-maximized="1"
     inkscape:current-layer="svg23" />
  <!-- Created with Method Draw - http://github.com/duopixel/Method-Draw/ -->
  <g
     id="svg_11"
     style="fill:#ffffff"
     transform="matrix(0.97710323,0,0,0.97710323,0.01954206,-9.7710324e-6)">
    <path
       fill="#ff9e3e"
       fill-rule="nonzero"
       id="path412"
       d="m 327.47866,34.37334 c -10e-4,0 -0.003,0 -0.003,0 -0.001,0 -0.003,0 -0.004,0.01334 l 0.007,-0.01334"
       style="fill:#ffffff" />
    <path
       fill="#24bbb1"
       fill-rule="nonzero"
       id="path414"
       d="m 231.53999,3.42668 c 0.001,0 0.001,0 0.003,0 0,0 0.001,0 0.003,-0.01333 l -0.005,0.01333"
       style="fill:#ffffff" />
    <path
       fill="#ff9700"
       fill-rule="nonzero"
       id="path416"
       d="m 65.47333,0.01335 c 0.004,0 0.008,-0.01334 0.012,-0.01334 0.004,0 0.0067,0 0.0093,0 L 65.4733,0.01335"
       style="fill:#ffffff" />
    <path
       fill="#ff9700"
       fill-rule="nonzero"
       id="path418"
       d="m 0.00533,131.00001 c -0.00133,0 -0.00133,0 -0.00267,0 -0.00133,0 -0.00266,0 -0.00266,0 h 0.00533"
       style="fill:#ffffff" />
    <path
       stroke="#ffffff"
       fill="none"
       fill-rule="nonzero"
       id="path420"
       d="m 309.66399,33.29334 c 0.192,0.36 0.46667,0.72 0.82267,1.06667 0.35733,0.36 0.68667,0.64 1.04267,0.8 0.35733,0.18667 0.71333,0.28 1.07066,0.28 h 9.95734 c 0.35733,0 0.71333,-0.09333 1.07066,-0.28 0.356,-0.16 0.65867,-0.44 0.87867,-0.8 0.24667,-0.34667 0.46533,-0.70667 0.63067,-1.06667 0.164,-0.36 0.27333,-0.70666 0.27333,-1.06666 V 9.29335 c 0,-0.82667 -0.27333,-1.68 -0.796,-2.56 -0.548,-0.90667 -1.20667,-1.69334 -1.97333,-2.41334 -0.768,-0.70666 -1.61867,-1.25333 -2.58,-1.66666 -0.93334,-0.44 -1.892,-0.64 -2.824,-0.64 h -77.804 c -1.072,0 -2.14134,0.30666 -3.21067,0.88 -1.07067,0.61333 -1.976,1.34666 -2.744,2.22666 -0.796,0.90667 -1.42667,1.86667 -1.97333,2.93334 -0.52267,1.06666 -0.79734,2.14666 -0.79734,3.21333 v 55.08 c 0,0.96 0.27467,1.86666 0.79734,2.74666 0.54666,0.90667 1.23333,1.68 2.056,2.33334 0.82266,0.62666 1.70133,1.21333 2.66133,1.68 0.96,0.46666 1.89333,0.70666 2.85333,0.70666 h 57.72134 c 0.22,0 0.52133,0.05334 0.87733,0.2 0.35733,0.10667 0.65867,0.29334 0.90667,0.6 0.21866,0.29334 0.43866,0.6 0.60266,0.90667 0.192,0.26667 0.27467,0.6 0.27467,0.96 v 36.62667 c 0,0.34666 -0.0827,0.68 -0.27467,0.96 -0.164,0.29333 -0.412,0.6 -0.71333,0.89333 -0.30133,0.28 -0.604,0.50667 -0.96,0.61333 -0.356,0.13334 -0.71333,0.18667 -1.07067,0.18667 h -46.88533 c -0.356,0 -0.712,-0.08 -1.06933,-0.26667 -0.356,-0.17333 -0.65734,-0.41333 -0.87734,-0.72 -0.24666,-0.30666 -0.46666,-0.65333 -0.63066,-1.06666 -0.19334,-0.41334 -0.27467,-0.8 -0.27467,-1.16 V 99.57334 c 0,-0.46666 -0.13733,-0.90666 -0.44,-1.32 -0.30133,-0.4 -0.63067,-0.78666 -0.98667,-1.14666 -0.35733,-0.36 -0.76933,-0.62667 -1.23466,-0.82667 -0.46667,-0.16 -0.96,-0.24 -1.42667,-0.24 h -8.17467 c -0.46666,0 -0.93466,0.10667 -1.42666,0.36 -0.46667,0.21333 -0.87734,0.57333 -1.23467,1.06667 -0.35733,0.46666 -0.65867,0.93333 -0.87867,1.4 -0.24666,0.49333 -0.35733,0.96 -0.35733,1.42666 v 21.86667 c 0,0.96 0.248,1.92 0.796,2.93333 0.52133,1.01334 1.26133,1.92 2.22267,2.73334 0.932,0.85333 1.976,1.49333 3.1,1.96 1.12533,0.49333 2.22266,0.70666 3.292,0.70666 h 78.16133 c 0.82267,0 1.70133,-0.21333 2.57867,-0.70666 0.87733,-0.46667 1.64533,-1.05334 2.304,-1.76 0.65866,-0.72 1.20666,-1.53334 1.7,-2.49334 0.468,-0.93333 0.71333,-1.84 0.71333,-2.66666 v -55.64 c 0,-0.93334 -0.27333,-1.92 -0.796,-2.93334 -0.548,-0.98666 -1.20667,-1.89333 -1.97333,-2.65333 -0.768,-0.77333 -1.61867,-1.37333 -2.58,-1.86667 -0.93334,-0.46666 -1.892,-0.72 -2.824,-0.72 h -68.39467 c -0.46667,0 -0.96,-0.18666 -1.42667,-0.6 -0.46666,-0.41333 -0.71333,-0.88 -0.71333,-1.34666 V 19.60001 c 0,-0.34667 0.0547,-0.73333 0.192,-1.14667 0.10933,-0.41333 0.328,-0.82666 0.60267,-1.24 0.30266,-0.41333 0.632,-0.73333 0.988,-0.98666 0.35733,-0.21334 0.71333,-0.36 1.06933,-0.36 h 56.132 c 0.356,0 0.768,0.14666 1.23467,0.36 0.46533,0.25333 0.87733,0.52 1.23333,0.8 0.35733,0.30666 0.66,0.65333 0.90667,1.06666 0.21866,0.41334 0.356,0.88 0.356,1.34667 v 12.78667 c 0,0.36 0.0827,0.70666 0.24666,1.06666"
       style="fill:#ffffff" />
    <path
       stroke="#ffffff"
       fill="none"
       fill-rule="nonzero"
       id="path422"
       d="m 114.88,6.18668 c -0.41067,-0.76 -0.932,-1.45333 -1.59067,-2.02667 -0.65867,-0.6 -1.39867,-1.09333 -2.22133,-1.50666 -0.824,-0.44 -1.592,-0.64 -2.30534,-0.64 H 69.092 c -0.932,0 -1.892,0.14666 -2.82534,0.44 -0.96,0.30666 -1.81066,0.77333 -2.57866,1.42666 -0.768,0.66667 -1.42667,1.45334 -1.948,2.38667 -0.54934,0.96 -0.82267,2.09333 -0.82267,3.37333 0,-1.28 -0.248,-2.41333 -0.796,-3.37333 -0.52133,-0.93333 -1.17867,-1.72 -1.948,-2.38667 -0.768,-0.65333 -1.64667,-1.12 -2.66,-1.42666 -1.016,-0.29334 -1.976,-0.44 -2.936,-0.44 H 8.65466 c -0.93333,0 -1.89333,0.2 -2.85333,0.64 C 4.868,3.06668 4.01866,3.56001 3.24933,4.16001 2.45466,4.73335 1.824,5.45335 1.27466,6.26668 0.75333,7.12001 0.48,7.94668 0.48,8.77335 v 117.62666 c 0,0.49333 0.10933,0.96 0.356,1.42667 0.24666,0.50666 0.576,0.93333 0.988,1.34666 0.41066,0.41334 0.85066,0.74667 1.316,0.96 0.49466,0.25334 0.96,0.36 1.42666,0.36 h 17.064 c 0.46667,0 1.04267,-0.10666 1.70134,-0.36 0.632,-0.21333 1.20666,-0.54666 1.67333,-0.96 0.46667,-0.41333 0.87867,-0.88 1.23467,-1.42666 0.356,-0.52 0.548,-1.09334 0.548,-1.69334 V 75.96001 c 0,-1.18667 -0.192,-2.28 -0.548,-3.29333 -0.356,-1.01334 -0.796,-2.01334 -1.31734,-3.02667 -0.548,-1.01333 -1.124,-2.02667 -1.78266,-3.01333 -0.65867,-1.01334 -1.28934,-2 -1.948,-2.93334 -0.65867,-0.96 -1.344,-1.92 -2.05734,-2.93333 -0.71333,-1.01333 -1.28933,-2.04 -1.756,-3.02667 C 16.88533,56.72001 16.47333,55.70668 16.116,54.72001 15.76,53.70668 15.59466,52.61334 15.59466,51.42668 v -30.56 c 0,-0.6 0.13734,-1.17334 0.43867,-1.70667 0.30267,-0.52 0.66,-1.04 1.07067,-1.50667 0.412,-0.46666 0.85066,-0.81333 1.31733,-1.06666 0.49333,-0.21334 1.01467,-0.36 1.61867,-0.36 h 26.85866 c 0.82267,0 1.61867,0.22666 2.38667,0.64 0.768,0.4 1.45333,0.96 2.05733,1.66666 0.576,0.72 1.09734,1.48 1.50934,2.33334 0.41066,0.82666 0.604,1.58666 0.604,2.30666 v 103.22667 c 0,0.49333 0.136,0.96 0.356,1.42667 0.24666,0.50666 0.60266,0.93333 1.06933,1.34666 0.46667,0.41334 0.98667,0.74667 1.50933,0.96 0.548,0.25334 1.04267,0.36 1.508,0.36 H 65.196 c 0.46666,0 0.87866,-0.10666 1.236,-0.36 0.35733,-0.21333 0.65866,-0.54666 0.90533,-0.96 0.21867,-0.41333 0.43867,-0.81333 0.60267,-1.22666 0.19333,-0.44 0.27466,-0.88 0.27466,-1.34667 V 23.53334 c 0,-0.82666 0.192,-1.70666 0.52134,-2.58666 0.356,-0.90667 0.87733,-1.69334 1.536,-2.41334 0.632,-0.70666 1.34533,-1.26666 2.112,-1.66666 0.768,-0.41334 1.592,-0.64 2.41466,-0.64 h 24.91067 c 0.46667,0 0.87867,0.14666 1.23467,0.36 0.356,0.25333 0.68533,0.57333 0.96,0.98666 0.30133,0.41334 0.52133,0.85334 0.63066,1.32 0.11067,0.49334 0.192,0.96 0.192,1.42667 v 106.98667 c 0,0.36 0.0827,0.72 0.24667,1.08 0.19333,0.34666 0.46667,0.70666 0.796,1.06666 0.35733,0.33334 0.71333,0.6 1.07067,0.8 0.356,0.16 0.71333,0.24 1.06933,0.24 h 7.10533 c 0.356,0 0.68667,-0.13333 0.988,-0.44 0.30134,-0.26666 0.54934,-0.62666 0.79467,-1.06666 0.248,-0.41334 0.412,-0.85334 0.54933,-1.32 0.10934,-0.46667 0.16534,-0.90667 0.16534,-1.26667 v -117.8 c 0,-0.84 -0.22,-1.64 -0.632,-2.41333"
       style="fill:#ffffff" />
    <path
       stroke="#ffffff"
       fill="none"
       fill-rule="nonzero"
       id="path424"
       d="m 228.56399,97.78668 v -0.04 c 0,-0.04 0,-0.04 0.0413,-0.04 0.32666,-0.61334 0.696,-1.22667 1.06533,-1.72 v -0.04 h 0.04 c 0,-0.04 0.0427,-0.04 0.0427,-0.04 0.204,-0.33334 0.49066,-0.62667 0.77733,-0.86667 v -22.96 c -0.45067,-0.49333 -0.86,-1.06667 -1.22933,-1.64 -0.73734,-1.22667 -1.148,-2.62667 -1.148,-4.10667 V 11.26668 c 0,-1.50667 0.36933,-2.98667 1.02533,-4.34667 v -0.04 h 0.04 c 0.164,-0.32 0.328,-0.65333 0.53467,-0.93333 v -0.04 c -0.41067,-0.66667 -0.82134,-1.24 -1.436,-1.73333 -0.656,-0.61334 -1.39334,-1.10667 -2.21467,-1.50667 -0.81867,-0.45333 -1.59867,-0.62667 -2.336,-0.62667 h -39.64933 c -0.944,0 -1.88667,0.13334 -2.788,0.41334 -0.984,0.29333 -1.84534,0.78666 -2.624,1.44 -0.73867,0.65333 -1.39467,1.42666 -1.928,2.37333 -0.57334,0.98667 -0.82,2.09333 -0.82,3.4 0,-1.30667 -0.24534,-2.41333 -0.82,-3.4 -0.492,-0.94667 -1.148,-1.72 -1.92667,-2.37333 -0.77867,-0.65334 -1.64133,-1.14667 -2.66533,-1.44 -1.02534,-0.28 -1.968,-0.41334 -2.952,-0.41334 h -43.91334 c -0.90266,0 -1.88666,0.17334 -2.82933,0.62667 -0.94267,0.4 -1.804,0.89333 -2.58266,1.50667 -0.36934,0.29333 -0.73867,0.57333 -1.02534,0.90666 0.532,1.06667 0.86134,2.29334 0.82,3.52 v 117.8 c 0,0.61333 -0.0827,1.24 -0.20533,1.85333 v 0.08 l -0.0413,0.08 c -0.0813,0.33334 -0.24534,0.73334 -0.45067,1.18667 0.24667,0.21333 0.53333,0.41333 0.82,0.53333 0.492,0.25334 0.944,0.37334 1.39466,0.37334 h 17.09734 c 0.45066,0 1.02533,-0.12 1.68133,-0.37334 0.61467,-0.2 1.188,-0.53333 1.68133,-0.98666 0.492,-0.4 0.90134,-0.85334 1.23067,-1.38667 0.368,-0.53333 0.57333,-1.10667 0.57333,-1.72 V 75.97334 c 0,-1.18666 -0.20533,-2.29333 -0.57333,-3.32 -0.32933,-0.98666 -0.78,-2.01333 -1.31333,-3 -0.57334,-1.01333 -1.10667,-2.04 -1.804,-3.02666 -0.61467,-1.02667 -1.27067,-2.01334 -1.92667,-2.90667 -0.656,-0.98667 -1.35333,-1.97333 -2.05067,-2.96 -0.73733,-1.02667 -1.27066,-2.05333 -1.76266,-3.02667 -0.492,-1.02666 -0.90267,-2.01333 -1.27067,-3 -0.32933,-1.02666 -0.53333,-2.13333 -0.53333,-3.28 V 20.86668 c 0,-0.61334 0.164,-1.18667 0.45066,-1.72 0.328,-0.49334 0.656,-1.02667 1.06667,-1.48 0.40933,-0.49334 0.86,-0.81334 1.312,-1.06667 0.49067,-0.2 1.02533,-0.37333 1.64,-0.37333 h 26.856 c 0.82,0 1.6,0.21333 2.37867,0.66666 0.77866,0.4 1.476,0.93334 2.05066,1.64 0.57334,0.69334 1.10667,1.46667 1.516,2.33334 0.392,0.78666 0.584,1.52 0.60134,2.2 v 22.09333 l 0.99066,-0.34667 h 0.0293 l 1.368,-0.41333 c 0.728,-0.24 1.164,-0.34667 1.572,-0.44 h 0.0293 c 0.524,-0.12 0.96133,-0.2 1.48533,-0.25333 l 0.78534,-0.14667 h 0.32 l 0.408,-0.14667 0.14533,-0.02666 1.748,-0.12 h 0.0293 l 2.44534,-0.06667 h 0.0293 c 0.98933,0.04 2.184,0.09333 3.37733,0.24 V 32.09334 c 0.004,0 0.008,0 0.012,0.01334 v -8.57334 c 0,-0.82666 0.20534,-1.68 0.492,-2.58666 0.36934,-0.90667 0.90134,-1.72 1.55734,-2.41334 0.65733,-0.70666 1.35466,-1.24 2.092,-1.64 0.77866,-0.45333 1.59866,-0.66666 2.46,-0.66666 h 24.888 c 0.45066,0 0.86133,0.17333 1.23066,0.37333 0.36934,0.25333 0.656,0.53333 0.94267,0.94667 0.328,0.45333 0.53333,0.85333 0.656,1.34666 0.12267,0.49334 0.164,0.94667 0.164,1.44 v 106.97334 c 0,0.37333 0.0827,0.69333 0.28667,1.06666 0.16533,0.37334 0.452,0.73334 0.78,1.06667 0.32666,0.37333 0.696,0.61333 1.06533,0.81333 0.36933,0.17334 0.73867,0.25334 1.06667,0.25334 h 7.092 c 0.37066,0 0.69733,-0.16 1.02666,-0.45334 0.28667,-0.24 0.532,-0.61333 0.77867,-1.06666 0.164,-0.28 0.328,-0.57334 0.40933,-0.90667 -0.45066,-0.53333 -0.86133,-1.14667 -1.188,-1.76 v -0.08 c -0.69733,-1.30667 -1.108,-2.66667 -1.108,-4.05333 v -21.89334 c 0,-0.86666 0.24667,-1.73333 0.616,-2.50666"
       style="fill:#ffffff" />
    <path
       stroke="#ffffff"
       fill="#ffffff"
       fill-rule="nonzero"
       id="path426"
       d="m 183.55199,74.92001 -4.77466,6.84 c -0.19467,0.04 -0.356,0.16 -0.53734,0.22667 -1.544,0.6 -2.66666,2.04 -2.66666,3.76 0,1.13333 0.46666,2.17333 1.216,2.92 0.37466,0.37333 0.82133,0.68 1.31466,0.89333 0.49467,0.2 1.036,0.32 1.604,0.32 h 0.001 v 0 c 1.16666,0 2.19066,-0.50667 2.94133,-1.29333 0.37333,-0.38667 0.69867,-0.81334 0.90267,-1.32 0.11466,-0.32 0.144,-0.66667 0.192,-1.01334 0.024,-0.17333 0.0973,-0.33333 0.0973,-0.50666 0,-0.29334 -0.0573,-0.61334 -0.116,-0.90667 l 17.99467,-36.01333 -18.16934,26.09333"
       style="fill:#ffffff" />
    <path
       stroke="#ffffff"
       fill="none"
       fill-rule="nonzero"
       id="path428"
       d="m 212.33199,82.52001 v -0.17333 l -0.0293,-0.06667 c -0.728,-6.14667 -3.144,-11.96 -6.988,-16.77333 l -0.0293,-0.08 c -0.37867,-0.44 -0.756,-0.88 -1.164,-1.28 -0.292,-0.36 -0.58267,-0.70667 -0.90267,-1.02667 -0.29067,-0.32 -0.612,-0.57333 -0.932,-0.89333 -0.17467,-0.18667 -0.34933,-0.32 -0.524,-0.46667 l -2.73733,5.46667 c 0.23333,0.2 0.43733,0.44 0.64133,0.66666 0.17467,0.17334 0.32,0.36 0.49467,0.53334 0.40666,0.49333 0.78533,0.98666 1.164,1.48 0.204,0.26666 0.37866,0.52 0.58266,0.78666 0.29067,0.44 0.58267,0.90667 0.844,1.33334 0.23334,0.38666 0.43734,0.73333 0.64134,1.10666 0.204,0.38667 0.408,0.76 0.58266,1.14667 0.232,0.46667 0.436,0.89333 0.64,1.36 0.14534,0.34667 0.26134,0.68 0.37867,1.02667 0.204,0.52 0.37867,1.01333 0.55333,1.53333 0.0867,0.36 0.17467,0.68 0.26267,1.02667 0.144,0.52 0.29067,1.04 0.37733,1.6 0.088,0.37333 0.14534,0.78666 0.204,1.2 0.088,0.49333 0.14534,0.98666 0.204,1.45333 0.0587,0.54667 0.088,1.13333 0.088,1.68 0.028,0.38667 0.0573,0.73333 0.0573,1.08 0,0.49333 -0.0573,0.96 -0.0867,1.42667 -0.0293,0.44 -0.0293,0.88 -0.0587,1.30666 -0.0293,0.26667 -0.088,0.53334 -0.116,0.76 -0.088,0.66667 -0.17466,1.32 -0.32133,1.98667 -0.028,0.10667 -0.0573,0.22667 -0.0867,0.34667 -0.17466,0.76 -0.37866,1.52 -0.612,2.26666 -0.232,0.78667 -0.524,1.54667 -0.844,2.28 -0.0573,0.17334 -0.14533,0.32 -0.204,0.46667 -0.26133,0.6 -0.55333,1.21333 -0.87333,1.8 -0.0867,0.2 -0.204,0.37333 -0.32,0.54667 -0.32,0.58666 -0.64133,1.14666 -0.99067,1.66666 -0.116,0.14667 -0.20266,0.29334 -0.29066,0.44 -2.35867,3.37334 -5.416,6.17334 -8.99734,8.21334 -3.872,2.17333 -8.24,3.4 -12.75333,3.52 -0.17467,0 -0.32,0.0267 -0.46667,0.0267 -0.90133,0 -1.83333,-0.0267 -2.736,-0.12 -0.14533,-0.0267 -0.292,-0.0533 -0.408,-0.0533 -0.756,-0.0933 -1.51466,-0.2 -2.272,-0.34667 -0.29066,-0.0667 -0.58133,-0.14666 -0.872,-0.21333 -0.58266,-0.14667 -1.16533,-0.29333 -1.748,-0.46667 -0.37866,-0.10666 -0.75733,-0.22666 -1.13466,-0.37333 -0.408,-0.14667 -0.816,-0.29333 -1.224,-0.46667 -0.436,-0.17333 -0.90267,-0.34666 -1.30934,-0.58666 -0.292,-0.10667 -0.58266,-0.25334 -0.87333,-0.4 -0.49467,-0.26667 -0.99067,-0.52 -1.48533,-0.81334 -0.14534,-0.0933 -0.32,-0.21333 -0.46667,-0.29333 -0.58267,-0.38667 -1.136,-0.73333 -1.65867,-1.13333 -0.0293,0 -0.0293,0 -0.0293,0 -1.92133,-1.42667 -3.64,-3.06667 -5.12533,-4.92 -0.0293,0 -0.0293,0 -0.0293,-0.04 -0.26133,-0.32 -0.524,-0.69334 -0.756,-1.04 -0.26266,-0.34667 -0.524,-0.70667 -0.75733,-1.05334 -0.17467,-0.25333 -0.32,-0.52 -0.46533,-0.76 -0.292,-0.49333 -0.58267,-0.98666 -0.87467,-1.48 -0.0867,-0.2 -0.17467,-0.41333 -0.29067,-0.61333 -0.292,-0.58667 -0.55333,-1.16 -0.78666,-1.74667 -0.0867,-0.2 -0.14534,-0.37333 -0.232,-0.58666 -0.23334,-0.6 -0.43734,-1.18667 -0.612,-1.8 -0.088,-0.22667 -0.14534,-0.46667 -0.204,-0.69334 -0.14534,-0.56 -0.29067,-1.14666 -0.40667,-1.72 -0.0587,-0.32 -0.11733,-0.61333 -0.176,-0.93333 -0.0867,-0.52 -0.17467,-1.08 -0.232,-1.62667 -0.0293,-0.17333 -0.0587,-0.36 -0.0587,-0.53333 -0.0587,-0.46667 -0.0587,-0.93333 -0.0587,-1.4 -0.028,-0.34667 -0.0573,-0.69333 -0.0573,-1.04 0,-0.78667 0.0573,-1.54667 0.116,-2.33333 0.0293,-0.12 0.0293,-0.25334 0.0293,-0.37334 0.0587,-0.66666 0.17466,-1.30666 0.29066,-1.94666 0.0587,-0.26667 0.088,-0.53334 0.11734,-0.78667 0.0867,-0.41333 0.232,-0.85333 0.348,-1.25333 0.11733,-0.46667 0.204,-0.93334 0.35066,-1.4 0.26134,-0.78667 0.524,-1.54667 0.844,-2.30667 0.0293,-0.02667 0.0293,-0.05333 0.0587,-0.08 1.01867,-2.45333 2.38667,-4.69333 4.04667,-6.70667 0.0293,-0.02666 0.0587,-0.05333 0.088,-0.08 0.49466,-0.61333 1.048,-1.2 1.60133,-1.77333 0.14533,-0.14667 0.29067,-0.26667 0.43733,-0.41333 0.436,-0.44 0.87334,-0.84 1.33867,-1.22667 0.26267,-0.22667 0.524,-0.42667 0.78533,-0.64 0.37867,-0.28 0.75734,-0.54667 1.136,-0.84 0.34934,-0.22667 0.728,-0.46667 1.07867,-0.69333 0.31867,-0.21334 0.64,-0.41334 0.93067,-0.58667 0.43733,-0.26667 0.90266,-0.49333 1.33866,-0.73333 0.26267,-0.10667 0.52534,-0.25334 0.816,-0.37334 0.49467,-0.24 0.99067,-0.44 1.48534,-0.64 0.26266,-0.12 0.49466,-0.2 0.75733,-0.29333 0.524,-0.17333 1.048,-0.37333 1.60133,-0.52 0.26134,-0.09333 0.55334,-0.14667 0.844,-0.24 0.524,-0.10667 1.01867,-0.25333 1.544,-0.34667 0.49467,-0.12 0.98934,-0.17333 1.51334,-0.22666 0.32,-0.06667 0.66933,-0.12 0.99066,-0.14667 0.844,-0.09333 1.71734,-0.14667 2.59067,-0.14667 0.46533,0 0.932,0.02667 1.42667,0.05334 0.29066,0 0.612,0 0.932,0.02666 0.75733,0.06667 1.544,0.17334 2.3,0.29334 0.524,0.09333 1.048,0.24 1.572,0.34666 0.408,0.09334 0.78666,0.17334 1.16533,0.29334 l 3.49333,-5 c -0.116,-0.04 -0.20266,-0.09334 -0.32,-0.12 -0.14533,-0.02667 -0.26133,-0.12 -0.408,-0.14667 -0.0573,-0.02667 -0.116,-0.02667 -0.17466,-0.05333 -0.844,-0.26667 -1.71734,-0.46667 -2.59067,-0.68 -0.204,-0.05334 -0.408,-0.10667 -0.58267,-0.17334 -0.0867,0 -0.17466,-0.02666 -0.26133,-0.02666 -0.088,-0.02667 -0.176,-0.05334 -0.26267,-0.05334 -0.14533,-0.02666 -0.29066,-0.06666 -0.43733,-0.09333 -0.58133,-0.12 -1.164,-0.14667 -1.74667,-0.22667 -0.29066,-0.04 -0.61066,-0.09333 -0.90266,-0.12 -3.29067,-0.32 -6.52134,-0.12 -9.63734,0.52 -0.14666,0.02667 -0.292,0.06667 -0.43733,0.09334 -0.844,0.17333 -1.71733,0.4 -2.56267,0.66666 -0.26133,0.09334 -0.552,0.17334 -0.81466,0.26667 -0.69867,0.22667 -1.39734,0.49333 -2.096,0.74667 -0.292,0.12 -0.58267,0.26666 -0.90267,0.41333 -0.64133,0.29333 -1.28133,0.58667 -1.92133,0.93333 -0.292,0.14667 -0.55334,0.29334 -0.816,0.44 -0.66934,0.37334 -1.31067,0.74667 -1.95067,1.16 -0.204,0.14667 -0.43733,0.29334 -0.64133,0.44 -0.69867,0.46667 -1.368,0.98667 -2.03734,1.50667 -0.11733,0.09333 -0.26266,0.21333 -0.37866,0.29333 -0.75734,0.64 -1.456,1.28 -2.15467,1.98667 l -0.0867,0.08 c -2.94266,2.92 -5.35866,6.41333 -7.04666,10.4 -0.17467,0.44 -0.32134,0.90667 -0.496,1.33333 -0.17467,0.49334 -0.37734,1 -0.55334,1.52 0,0.02667 -0.0293,0.05334 -0.0293,0.08 -0.232,0.70667 -0.408,1.42667 -0.58133,2.16 -0.088,0.37334 -0.204,0.73334 -0.26267,1.10667 -0.0867,0.34667 -0.116,0.69333 -0.17467,1.05333 -0.14533,0.74667 -0.26266,1.53334 -0.34933,2.29334 0,0.02666 0,0.02666 0,0.05333 -0.116,1.10667 -0.17467,2.21333 -0.17467,3.29333 v 0.26667 c 0.0293,0.98667 0.0587,2.01333 0.17467,3 v 0.22667 c 0.0293,0.32 0.0867,0.64 0.116,0.96 0.0307,0.32 0.11733,0.61333 0.17467,0.93333 0.0587,0.44 0.14666,0.85333 0.23333,1.28 0.11733,0.68 0.292,1.34667 0.46533,2.01333 0.088,0.29334 0.17467,0.58667 0.26267,0.88 0.23333,0.74667 0.496,1.50667 0.75733,2.26667 0.0867,0.2 0.17467,0.4 0.23334,0.58667 0.348,0.81333 0.69866,1.6 1.07733,2.38666 0.0867,0.14667 0.14533,0.28 0.232,0.42667 0.408,0.78667 0.87333,1.57333 1.34,2.33333 0.0867,0.12 0.14533,0.26667 0.204,0.34667 0.524,0.81333 1.07733,1.57333 1.63067,2.30667 0.0867,0.08 0.14533,0.17333 0.20266,0.25333 0.64134,0.82667 1.31067,1.57333 2.00934,2.33333 0.23333,0.24 0.46666,0.44 0.7,0.66667 0.49466,0.50667 0.98933,0.96 1.484,1.4 0.34933,0.32 0.75733,0.61333 1.10666,0.90667 0.43734,0.34666 0.87334,0.69333 1.31067,1.01333 0.37867,0.26667 0.78667,0.53333 1.164,0.78667 0.49467,0.32 0.99067,0.64 1.48533,0.93333 0.37867,0.2 0.728,0.41333 1.10667,0.61333 0.58133,0.32 1.19333,0.61334 1.776,0.88 0.34933,0.13334 0.66933,0.32 1.01867,0.42667 0.7,0.29333 1.39866,0.56 2.096,0.81333 0.20533,0.0667 0.38,0.14667 0.55466,0.21334 0.116,0.0267 0.204,0.0267 0.32,0.0533 3.08534,0.96 6.376,1.52 9.78267,1.52 4.13467,0 8.06667,-0.78667 11.70533,-2.18667 h 0.14534 c 0.11733,-0.0533 0.26266,-0.14666 0.408,-0.2 0.64133,-0.26666 1.28133,-0.56 1.89333,-0.85333 0.348,-0.14667 0.66933,-0.29333 0.98933,-0.46667 0.66934,-0.34666 1.33867,-0.72 1.98,-1.13333 0.204,-0.12 0.408,-0.2 0.58267,-0.34667 2.94133,-1.86666 5.56133,-4.16 7.77467,-6.84 1.30933,-1.6 2.47466,-3.32 3.49333,-5.18666 0.26267,-0.49334 0.496,-1.01334 0.75733,-1.54667 0.17467,-0.4 0.408,-0.81333 0.58267,-1.21333 0.40667,-0.93334 0.756,-1.89334 1.076,-2.85334 0,-0.04 0,-0.06666 0.0307,-0.09333 0.58133,-1.8 0.98933,-3.69333 1.25066,-5.61333 0.0307,-0.36 0.088,-0.68 0.14667,-1 0.028,-0.37334 0.028,-0.78667 0.0573,-1.16 0.0587,-0.73334 0.11734,-1.45334 0.11734,-2.21334 v -0.09333 c 0,-0.13333 -0.0293,-0.28 -0.0293,-0.42667 0,-1.08 -0.088,-2.13333 -0.204,-3.17333"
       style="fill:#ffffff" />
  </g>
</svg>
